<?xml version="1.0" encoding="UTF-8"?>
<svg version="1.1" xmlns="http://www.w3.org/2000/svg" width="512" height="512" viewBox="0 0 512 512">
<path d="M0 0 C7.35712878 4.38702864 11.70998437 9.99409741 15.23828125 17.734375 C16.54608653 23.02424211 16.31744401 28.20776727 16.234375 33.6328125 C16.22535156 34.75042969 16.21632813 35.86804688 16.20703125 37.01953125 C16.18355957 39.76571762 16.14769155 42.51179313 16.109375 45.2578125 C10.829375 45.2578125 5.549375 45.2578125 0.109375 45.2578125 C0.00625 42.8034375 -0.096875 40.3490625 -0.203125 37.8203125 C-0.73968274 26.79477259 -0.73968274 26.79477259 -6.453125 17.7578125 C-11.27778713 14.78878965 -15.27879724 14.63714952 -20.890625 15.2578125 C-25.35873966 17.4512506 -27.79925856 19.74486387 -29.890625 24.2578125 C-30.84664819 28.10225172 -31.04135159 31.74615282 -31.09594727 35.70043945 C-31.11589249 36.98138992 -31.13583771 38.26234039 -31.15638733 39.58210754 C-31.17336778 40.97010174 -31.19024673 42.35809717 -31.20703125 43.74609375 C-31.22761924 45.17384925 -31.24861618 46.60159891 -31.27000427 48.02934265 C-31.32503453 51.77588145 -31.37452727 55.52247351 -31.42285156 59.269104 C-31.47320621 63.09676824 -31.52881918 66.92435573 -31.58398438 70.75195312 C-31.69133279 78.25384289 -31.79234257 85.75579748 -31.890625 93.2578125 C-26.610625 93.2578125 -21.330625 93.2578125 -15.890625 93.2578125 C-15.890625 87.9778125 -15.890625 82.6978125 -15.890625 77.2578125 C-10.610625 77.2578125 -5.330625 77.2578125 0.109375 77.2578125 C0.109375 82.5378125 0.109375 87.8178125 0.109375 93.2578125 C1.57436432 93.24893005 3.03935364 93.24004761 4.54873657 93.230896 C18.35056132 93.14983174 32.15236757 93.08961688 45.9543705 93.05056381 C53.0502441 93.02995158 60.14593981 93.00185691 67.24169922 92.95605469 C74.08869488 92.91187932 80.93550554 92.88867865 87.78263474 92.87830353 C90.39574468 92.87090914 93.00884444 92.85646982 95.62187576 92.83489227 C99.2802039 92.80588273 102.93776687 92.80185566 106.59619141 92.80371094 C107.6780069 92.78932983 108.75982239 92.77494873 109.87442017 92.76013184 C115.95541983 92.79353182 119.48876695 93.1858657 124.109375 97.2578125 C128.44694167 102.20721483 128.70112192 106.22272334 128.640625 112.50390625 C128.6444519 113.39207535 128.64827881 114.28024445 128.65222168 115.19532776 C128.65493677 117.07383356 128.64760379 118.95237742 128.63085938 120.83081055 C128.60967223 123.65568352 128.63055438 126.47794604 128.65625 129.30273438 C128.69035233 150.21944749 123.55050298 168.29215174 108.89135742 183.74633789 C101.93308106 190.70026737 90.39841928 201.2578125 80.109375 201.2578125 C80.109375 242.1778125 80.109375 283.0978125 80.109375 325.2578125 C82.749375 325.9178125 85.389375 326.5778125 88.109375 327.2578125 C90.6484375 328.51953125 90.6484375 328.51953125 92.734375 329.9453125 C93.42789062 330.40292969 94.12140625 330.86054688 94.8359375 331.33203125 C99.92335031 335.641472 103.18523319 340.13799931 106.08984375 346.15625 C110.9433937 357.45998927 110.9433937 357.45998927 119.61083984 365.46191406 C125.20265964 366.70315922 130.50725928 366.21339727 136.109375 365.2578125 C136.109375 370.5378125 136.109375 375.8178125 136.109375 381.2578125 C-24.930625 381.2578125 -185.970625 381.2578125 -351.890625 381.2578125 C-351.890625 375.9778125 -351.890625 370.6978125 -351.890625 365.2578125 C-341.660625 365.2578125 -331.430625 365.2578125 -320.890625 365.2578125 C-320.14242418 346.13448394 -319.69067358 327.01895882 -319.515625 307.8828125 C-319.50854444 307.14925569 -319.50146388 306.41569887 -319.49416876 305.65991306 C-318.82978667 233.20925051 -331.66065054 163.84760952 -346.85879374 93.23238099 C-347.48423602 90.32261407 -348.10083578 87.41100294 -348.71696162 84.49925113 C-349.13402679 82.54918812 -349.56561647 80.60224854 -349.99787331 78.6554966 C-353.98099178 59.84053968 -353.98099178 59.84053968 -350.265625 51.6953125 C-345.87981135 47.1940827 -342.33325973 44.81825707 -335.90162659 44.70202637 C-335.16709763 44.71012329 -334.43256866 44.71822021 -333.67578125 44.7265625 C-332.51483192 44.72082214 -332.51483192 44.72082214 -331.33042908 44.71496582 C-329.70082288 44.71225568 -328.07117251 44.71955387 -326.44165039 44.73632812 C-323.96335611 44.75772417 -321.48796976 44.73651388 -319.00976562 44.7109375 C-317.4192645 44.71358151 -315.82876518 44.718708 -314.23828125 44.7265625 C-313.50577652 44.71846558 -312.77327179 44.71036865 -312.01856995 44.70202637 C-306.75053267 44.7968007 -303.01446521 45.92583019 -298.890625 49.2578125 C-293.94073238 55.88860419 -293.1174203 63.81433885 -291.68261719 71.76831055 C-291.3875725 73.34924691 -291.09138948 74.92997119 -290.79415894 76.51049805 C-289.99334715 80.78701374 -289.20870171 85.06635125 -288.42717648 89.34642768 C-287.60599426 93.8291938 -286.77055216 98.30930189 -285.93682861 102.78974915 C-284.53970643 110.30917735 -283.15227126 117.83033903 -281.77148438 125.3527832 C-279.99887777 135.00961245 -278.2109349 144.66353411 -276.41791916 154.31659222 C-274.87580314 162.61918793 -273.34001 170.92295112 -271.80560398 179.22697473 C-271.3123188 181.8955115 -270.8183012 184.56391202 -270.32424164 187.23230553 C-269.5490243 191.42180794 -268.77773261 195.61201535 -268.00949478 199.80280304 C-267.72691419 201.34134799 -267.44312739 202.87967195 -267.15805435 204.41775703 C-266.76956703 206.51514583 -266.38551194 208.6132985 -266.00262451 210.7117157 C-265.67857195 212.47345139 -265.67857195 212.47345139 -265.34797287 214.2707777 C-264.890625 217.2578125 -264.890625 217.2578125 -264.890625 221.2578125 C-263.85032513 221.25228174 -263.85032513 221.25228174 -262.78900909 221.24663925 C-245.89555014 221.15821168 -229.00216472 221.09206576 -212.10852814 221.05056381 C-203.93880387 221.0299591 -195.76923432 221.00187869 -187.59960938 220.95605469 C-180.47701012 220.91612265 -173.35452295 220.89036448 -166.23181486 220.88145852 C-162.46210571 220.87625448 -158.69271713 220.86406728 -154.92311096 220.83489227 C-151.37064954 220.80762216 -147.81863892 220.79939062 -144.26608276 220.80538177 C-142.34957105 220.80376686 -140.43310776 220.78230488 -138.51672363 220.76013184 C-130.42378206 220.7986495 -124.90682045 221.73839384 -118.6484375 227.22265625 C-118.10960937 227.87363281 -117.57078125 228.52460938 -117.015625 229.1953125 C-116.46132812 229.84371094 -115.90703125 230.49210938 -115.3359375 231.16015625 C-109.58865977 239.50147555 -110.94203953 251.58334014 -112.54296875 261.16015625 C-115.95907152 274.19412778 -122.35026804 284.83083839 -131.890625 294.2578125 C-132.57769531 294.96679688 -133.26476562 295.67578125 -133.97265625 296.40625 C-148.69655871 310.66576222 -168.25501819 313.7028352 -187.828125 314.5078125 C-189.39785948 314.5844562 -190.96752269 314.66257433 -192.53710938 314.7421875 C-196.32101296 314.93098362 -200.10530361 315.10010413 -203.890625 315.2578125 C-203.69952148 316.06186523 -203.50841797 316.86591797 -203.31152344 317.69433594 C-202.57810399 320.78775971 -201.84791011 323.88192533 -201.11962891 326.9765625 C-200.65891763 328.93024129 -200.19476408 330.88310736 -199.73046875 332.8359375 C-197.93164301 340.46141548 -196.29160619 348.10474321 -194.77050781 355.79003906 C-194.58839752 356.70552521 -194.40628723 357.62101135 -194.21865845 358.5642395 C-193.7750072 360.7952391 -193.33234714 363.0264303 -192.890625 365.2578125 C-179.08664853 365.75473835 -165.2874547 366.10269308 -151.4752655 366.26558971 C-145.05914439 366.34583638 -138.6522921 366.47543252 -132.24023438 366.72192383 C-105.48308833 369.35188096 -105.48308833 369.35188096 -81.09326172 361.62799072 C-75.24152823 355.66100829 -72.7365533 348.23917198 -70.22583008 340.40420532 C-67.25386082 333.40079971 -61.2377824 329.6394788 -54.453125 326.7578125 C-50.32165948 325.2578125 -50.32165948 325.2578125 -47.890625 325.2578125 C-47.890625 284.3378125 -47.890625 243.4178125 -47.890625 201.2578125 C-52.345625 199.7728125 -52.345625 199.7728125 -56.890625 198.2578125 C-74.94233026 188.97957251 -87.06594018 173.70220867 -93.73999023 154.85986328 C-96.51228417 145.61559197 -96.38041644 136.30094638 -96.33666992 126.73779297 C-96.32807903 123.86745275 -96.35713984 120.99905496 -96.38867188 118.12890625 C-96.39028235 116.28906309 -96.3897093 114.44921643 -96.38671875 112.609375 C-96.39795273 111.75928864 -96.40918671 110.90920227 -96.42076111 110.03335571 C-96.35764635 104.63963537 -95.58270854 101.456351 -91.890625 97.2578125 C-86.9905374 92.98211526 -83.18939792 92.70730679 -76.9921875 92.8671875 C-76.15722748 92.87284729 -75.32226746 92.87850708 -74.46200562 92.88433838 C-71.81261234 92.90661027 -69.16460484 92.95678727 -66.515625 93.0078125 C-64.71225921 93.02788948 -62.90887208 93.04613815 -61.10546875 93.0625 C-56.69999231 93.10644464 -52.29554306 93.17540649 -47.890625 93.2578125 C-47.89950745 92.37799713 -47.90838989 91.49818176 -47.9175415 90.59170532 C-47.9979746 82.26553681 -48.05873463 73.93950039 -48.09787369 65.61303139 C-48.11867259 61.33315973 -48.1468477 57.05361141 -48.19238281 52.77392578 C-48.23611767 48.63714839 -48.25981987 44.50068032 -48.27013397 40.36368942 C-48.27747612 38.79214998 -48.29181266 37.22062583 -48.31354523 35.64921951 C-48.46378693 24.32664923 -47.69368329 14.46171834 -39.59375 5.7890625 C-28.99673947 -3.73852495 -12.95346121 -6.21592266 0 0 Z M-334.890625 61.2578125 C-334.05398352 69.68438262 -334.05398352 69.68438262 -332.7520752 77.97616577 C-332.52496353 79.21259827 -332.29785187 80.44903076 -332.06385803 81.72293091 C-331.81413541 83.0592799 -331.56433109 84.39561364 -331.31445312 85.73193359 C-331.04957289 87.16525948 -330.78505152 88.59865173 -330.52085876 90.03210449 C-329.80765127 93.89599009 -329.0893785 97.75891795 -328.37007713 101.62167311 C-327.6163417 105.67382582 -326.86710491 109.72681035 -326.11730957 113.7796936 C-324.85910648 120.57710993 -323.59784352 127.37395251 -322.33447266 134.17041016 C-320.71313739 142.89266136 -319.09678883 151.61582884 -317.48203278 160.33930016 C-316.09176368 167.84985077 -314.69932421 175.35999874 -313.3064785 182.87007189 C-312.85948465 185.28065868 -312.41276795 187.69129672 -311.96607971 190.10194016 C-311.26472951 193.88609465 -310.56202886 197.66999603 -309.85827827 201.45370483 C-309.60025754 202.84197756 -309.34265752 204.23032854 -309.08550835 205.61876297 C-308.73456248 207.51317859 -308.38191242 209.40727827 -308.0291748 211.30136108 C-307.83228813 212.36133993 -307.63540146 213.42131878 -307.43254852 214.5134182 C-306.98579269 216.77586686 -306.44994521 219.02053164 -305.890625 221.2578125 C-297.970625 221.2578125 -290.050625 221.2578125 -281.890625 221.2578125 C-285.17784031 201.92057471 -288.6211523 182.61794628 -292.21096134 163.33439851 C-292.73377867 160.52484853 -293.25545828 157.7150877 -293.77718806 154.90533561 C-295.00530747 148.29162601 -296.23540355 141.6782863 -297.46679688 135.06518555 C-298.73379242 128.26066232 -299.99707622 121.45545685 -301.2586987 114.64993554 C-302.35132182 108.75681859 -303.44627247 102.86413736 -304.54309726 96.97180098 C-305.19444152 93.47250448 -305.8448817 89.9730461 -306.4930191 86.47315407 C-307.20972179 82.60361883 -307.93127186 78.73499656 -308.65332031 74.86645508 C-308.86628754 73.71296066 -309.07925476 72.55946625 -309.29867554 71.37101746 C-309.4947641 70.32475189 -309.69085266 69.27848633 -309.8928833 68.20051575 C-310.06245167 67.28873471 -310.23202003 66.37695368 -310.40672684 65.43754292 C-310.80496999 63.22683759 -310.80496999 63.22683759 -311.890625 61.2578125 C-319.480625 61.2578125 -327.070625 61.2578125 -334.890625 61.2578125 Z M-79.890625 109.2578125 C-80.23291868 144.52561541 -80.23291868 144.52561541 -62.890625 173.2578125 C-46.3895508 188.49650944 -26.77660107 189.58251015 -5.515625 189.5234375 C-3.77555284 189.52478938 -2.03548105 189.52673423 -0.29541016 189.52923584 C3.32848757 189.53216253 6.95228583 189.52796938 10.57617188 189.51855469 C15.18179242 189.50716169 19.78717972 189.51373445 24.39279175 189.52569962 C27.97910262 189.53298508 31.56535972 189.53059988 35.15167236 189.52544403 C36.84824655 189.52412594 38.54482589 189.5256893 40.24139404 189.53040314 C61.2249905 189.57593477 80.32223793 187.41597997 96.109375 172.2578125 C113.1570186 153.79793807 112.109375 133.65752598 112.109375 109.2578125 C48.749375 109.2578125 -14.610625 109.2578125 -79.890625 109.2578125 Z M-31.890625 205.2578125 C-31.890625 244.8578125 -31.890625 284.4578125 -31.890625 325.2578125 C-0.210625 325.2578125 31.469375 325.2578125 64.109375 325.2578125 C64.109375 285.6578125 64.109375 246.0578125 64.109375 205.2578125 C32.429375 205.2578125 0.749375 205.2578125 -31.890625 205.2578125 Z M-303.890625 237.2578125 C-303.890625 242.5378125 -303.890625 247.8178125 -303.890625 253.2578125 C-246.140625 253.2578125 -188.390625 253.2578125 -128.890625 253.2578125 C-127.84894202 243.23479848 -127.84894202 243.23479848 -130.703125 239.6328125 C-134.71838196 237.10893669 -137.98323956 237.13409335 -142.62931824 237.13755798 C-143.66221834 237.13627635 -143.66221834 237.13627635 -144.71598512 237.13496882 C-147.02837509 237.13331885 -149.34069286 237.1388275 -151.65307617 237.14428711 C-153.30867003 237.14456911 -154.96426401 237.14441099 -156.61985779 237.1438446 C-161.11954754 237.14355714 -165.61921076 237.14944572 -170.11889434 237.15641856 C-174.81943996 237.1626605 -179.51998615 237.16325657 -184.22053528 237.16444397 C-193.12401543 237.1675548 -202.02748334 237.17576486 -210.93095809 237.18579346 C-221.06626242 237.19696228 -231.20156733 237.20246699 -241.33687627 237.20748889 C-262.18813287 237.21794767 -283.03937774 237.23574324 -303.890625 237.2578125 Z M-303.890625 269.2578125 C-303.890625 300.9378125 -303.890625 332.6178125 -303.890625 365.2578125 C-273.200625 365.2578125 -242.510625 365.2578125 -210.890625 365.2578125 C-211.60254513 358.31069716 -211.60254513 358.31069716 -212.83032227 351.56420898 C-213.0104335 350.76405869 -213.19054474 349.96390839 -213.37611389 349.13951111 C-213.56781662 348.31101151 -213.75951935 347.4825119 -213.95703125 346.62890625 C-214.15538071 345.75379898 -214.35373016 344.87869171 -214.55809021 343.97706604 C-215.18514598 341.2154049 -215.81901102 338.45536054 -216.453125 335.6953125 C-216.8826149 333.809348 -217.3116556 331.92328114 -217.74023438 330.03710938 C-218.78517905 325.44281164 -219.83622834 320.84994979 -220.890625 316.2578125 C-227.47685391 316.20270402 -234.00816127 316.29125508 -240.578125 316.7578125 C-244.1978125 317.0053125 -244.1978125 317.0053125 -247.890625 317.2578125 C-247.890625 311.9778125 -247.890625 306.6978125 -247.890625 301.2578125 C-245.65643799 301.12729492 -243.42225098 300.99677734 -241.12036133 300.86230469 C-233.69154974 300.42596178 -226.26389758 299.97186343 -218.83667469 299.50930405 C-214.33891681 299.22972465 -209.84097023 298.95590974 -205.34204102 298.69580078 C-200.9903722 298.4439839 -196.63992709 298.17633068 -192.28986168 297.89823151 C-190.64024899 297.79546007 -188.99028575 297.69814718 -187.34000587 297.60671234 C-168.79414207 296.57129741 -153.05627102 292.17504068 -139.890625 278.2578125 C-136.50742901 274.12910722 -136.50742901 274.12910722 -134.890625 269.2578125 C-190.660625 269.2578125 -246.430625 269.2578125 -303.890625 269.2578125 Z M-52.55859375 345.3671875 C-55.42269025 348.91732386 -57.83869971 352.61264077 -60.203125 356.5078125 C-60.8847168 357.60609375 -60.8847168 357.60609375 -61.58007812 358.7265625 C-63.8530126 361.79303302 -63.8530126 361.79303302 -64.890625 365.2578125 C-11.430625 365.2578125 42.029375 365.2578125 97.109375 365.2578125 C90.9732762 351.80991147 90.9732762 351.80991147 80.109375 342.2578125 C74.40658346 340.97282259 68.71962788 341.11004125 62.90673828 341.11254883 C61.78729828 341.10919022 60.66785828 341.1058316 59.51449585 341.10237122 C55.8195484 341.09288418 52.12464637 341.09091928 48.4296875 341.08984375 C45.85667909 341.0866298 43.28367087 341.08326562 40.71066284 341.07975769 C35.31898497 341.07377218 29.92732507 341.07187433 24.53564453 341.07250977 C18.31790672 341.07311031 12.10025572 341.06255949 5.88253987 341.0467661 C-0.11569072 341.03207726 -6.11387443 341.02852271 -12.1121254 341.02911949 C-14.65657023 341.02794077 -17.20101573 341.02352502 -19.74544907 341.01578712 C-23.30677207 341.00597011 -26.86787249 341.00887213 -30.42919922 341.01489258 C-31.47569641 341.00927307 -32.5221936 341.00365356 -33.60040283 340.99786377 C-43.70609699 341.01334899 -43.70609699 341.01334899 -52.55859375 345.3671875 Z " fill="currentColor" transform="translate(359.890625,122.7421875)"/>
<path d="M0 0 C0.96461151 -0.00623996 1.92922302 -0.01247993 2.92306519 -0.01890898 C6.1520845 -0.03485099 9.38035022 -0.02222963 12.609375 -0.00964355 C14.92562297 -0.01506411 17.24186749 -0.0221864 19.55810547 -0.03088379 C25.84729455 -0.04912772 32.13622133 -0.042045 38.42541504 -0.02936745 C45.00497142 -0.01924544 51.58450524 -0.02863091 58.1640625 -0.03491211 C69.92148203 -0.04345692 81.67879115 -0.03022092 93.43619156 -0.00987476 C104.09293685 0.00799589 114.74950785 0.00489166 125.40625 -0.0135498 C137.78656125 -0.03496393 150.16676138 -0.04291967 162.54708862 -0.03110075 C169.0988178 -0.02486231 175.65042695 -0.02403996 182.20214844 -0.0372467 C188.36147014 -0.04879504 194.52046245 -0.04079758 200.67974854 -0.01766968 C202.94125827 -0.01237722 205.20279569 -0.01390548 207.46429443 -0.02272034 C210.54948815 -0.03363775 213.63362385 -0.01995733 216.71875 0 C218.06379105 -0.01338433 218.06379105 -0.01338433 219.43600464 -0.02703905 C224.90812847 0.04170451 228.00766792 0.88323695 232.359375 4.50793457 C237.77348132 10.07805157 236.92320599 16.64438487 236.87695312 23.94543457 C236.882378 25.31588483 236.88950271 26.68632925 236.89819336 28.0567627 C236.91638667 31.76758193 236.90937602 35.47795498 236.89667702 39.18878174 C236.88652849 43.07773006 236.89594783 46.96664095 236.90222168 50.85559082 C236.90949272 57.38560829 236.89992476 63.91544462 236.88085938 70.44543457 C236.85909154 77.98798642 236.8661433 85.53010573 236.888165 93.07264709 C236.90633459 99.55607294 236.90886974 106.0393688 236.89841032 112.52281189 C236.89218391 116.39178555 236.89131611 120.2605561 236.90455627 124.1295166 C236.91613704 127.76749859 236.90804926 131.40492457 236.88497925 135.04284668 C236.87719347 137.00971722 236.88902909 138.97663496 236.90148926 140.94348145 C236.79612667 151.94333528 236.79612667 151.94333528 232.359375 156.50793457 C227.24050858 161.0887913 222.84685768 161.06280399 216.31494141 160.96203613 C214.82133087 160.96291229 214.82133087 160.96291229 213.29754639 160.96380615 C210.01831763 160.9610276 206.74000675 160.92994546 203.4609375 160.89855957 C201.18265276 160.89109639 198.90436158 160.88540382 196.62606812 160.88140869 C190.63855166 160.86615856 184.6514252 160.82688154 178.6640625 160.78259277 C172.55083491 160.74162701 166.43754412 160.72339485 160.32421875 160.70324707 C148.33576644 160.66038714 136.34760319 160.59214289 124.359375 160.50793457 C124.359375 155.22793457 124.359375 149.94793457 124.359375 144.50793457 C156.039375 144.50793457 187.719375 144.50793457 220.359375 144.50793457 C220.359375 102.26793457 220.359375 60.02793457 220.359375 16.50793457 C146.439375 16.50793457 72.519375 16.50793457 -3.640625 16.50793457 C-3.640625 58.74793457 -3.640625 100.98793457 -3.640625 144.50793457 C6.919375 144.50793457 17.479375 144.50793457 28.359375 144.50793457 C28.359375 149.78793457 28.359375 155.06793457 28.359375 160.50793457 C23.05750941 160.60712043 17.75618882 160.67955212 12.45361328 160.72766113 C10.65143419 160.7477249 8.84931979 160.7749827 7.04736328 160.80969238 C4.45068364 160.85844286 1.85486771 160.88095539 -0.7421875 160.89855957 C-1.94254135 160.92952728 -1.94254135 160.92952728 -3.16714478 160.96112061 C-8.46447822 160.96322553 -11.507854 160.11409002 -15.640625 156.50793457 C-20.94727338 150.77633278 -20.2056581 144.5612383 -20.15820312 137.07043457 C-20.163628 135.69998431 -20.17075271 134.32953989 -20.17944336 132.95910645 C-20.19763667 129.24828721 -20.19062602 125.53791416 -20.17792702 121.8270874 C-20.16777849 117.93813908 -20.17719783 114.04922819 -20.18347168 110.16027832 C-20.19074272 103.63026085 -20.18117476 97.10042452 -20.16210938 90.57043457 C-20.14034154 83.02788272 -20.1473933 75.48576341 -20.169415 67.94322205 C-20.18758459 61.4597962 -20.19011974 54.97650034 -20.17966032 48.49305725 C-20.17343391 44.62408359 -20.17256611 40.75531304 -20.18580627 36.88635254 C-20.19738704 33.24837055 -20.18929926 29.61094457 -20.16622925 25.97302246 C-20.15844347 24.00615192 -20.17027909 22.03923418 -20.18273926 20.0723877 C-20.07737667 9.07253386 -20.07737667 9.07253386 -15.640625 4.50793457 C-10.42679438 0.1651424 -6.48815762 -0.06456282 0 0 Z " fill="currentColor" transform="translate(267.640625,7.4920654296875)"/>
<path d="M0 0 C0.73250977 -0.00700928 1.46501953 -0.01401855 2.21972656 -0.02124023 C4.62604382 -0.03875584 7.03117209 -0.02722142 9.4375 -0.01367188 C11.11849186 -0.01636866 12.79948221 -0.02025264 14.48046875 -0.02526855 C17.99754743 -0.03115485 21.5142188 -0.02262896 25.03125 -0.00390625 C29.53052189 0.01888312 34.02883927 0.00575532 38.52807617 -0.01819611 C41.99746847 -0.03267779 45.46663594 -0.02803731 48.93603516 -0.01768494 C50.59456496 -0.01502418 52.25311544 -0.01826444 53.91162109 -0.02760315 C56.23329421 -0.03780834 58.55344011 -0.02221466 60.875 0 C62.19371094 0.00318237 63.51242188 0.00636475 64.87109375 0.00964355 C70.17766779 0.76541623 73.2114159 3.19811676 76.796875 7.05664062 C79.15500408 12.03117006 78.8695321 16.46662138 78.6875 21.89257812 C78.66945313 22.91480469 78.65140625 23.93703125 78.6328125 24.99023438 C78.58590557 27.4997551 78.51416924 30.0087903 78.4375 32.51757812 C83.7175 32.51757812 88.9975 32.51757812 94.4375 32.51757812 C94.4375 37.79757813 94.4375 43.07757813 94.4375 48.51757812 C89.1575 48.51757812 83.8775 48.51757812 78.4375 48.51757812 C78.48390625 50.03609375 78.5303125 51.55460937 78.578125 53.11914062 C78.61565384 55.1269334 78.6520528 57.13474752 78.6875 59.14257812 C78.72101563 60.14160156 78.75453125 61.140625 78.7890625 62.16992188 C78.87051814 68.31982265 78.57450435 71.85784759 74.4375 76.51757812 C70.21249877 80.00779653 67.82246399 80.71257682 62.4375 80.51757812 C62.4689209 81.47011475 62.4689209 81.47011475 62.50097656 82.44189453 C62.58454581 85.34195889 62.63628774 88.24176928 62.6875 91.14257812 C62.72101563 92.14160156 62.75453125 93.140625 62.7890625 94.16992188 C62.86798846 100.12883176 62.68301031 103.94873425 58.4375 108.51757812 C53.17769641 112.94961936 49.01229487 113.10715853 42.4375 113.04882812 C41.00664062 113.05456848 41.00664062 113.05456848 39.546875 113.0604248 C37.53644755 113.06313849 35.52598447 113.0558155 33.515625 113.0390625 C30.44711213 113.01764521 27.38094048 113.03888279 24.3125 113.06445312 C22.35416152 113.06180975 20.3958245 113.05668458 18.4375 113.04882812 C17.52484375 113.05692505 16.6121875 113.06502197 15.671875 113.07336426 C10.09165894 112.99165544 6.8594279 112.24360448 2.4375 108.51757812 C-2.51290182 103.19015895 -2.04287405 98.00949679 -1.8125 91.14257812 C-1.79445312 90.12035156 -1.77640625 89.098125 -1.7578125 88.04492188 C-1.71089491 85.53483064 -1.64526729 83.02670048 -1.5625 80.51757812 C-2.48804688 80.55109375 -3.41359375 80.58460938 -4.3671875 80.61914062 C-8.59111621 80.48488372 -10.32846766 79.18917006 -13.5625 76.51757812 C-18.38715021 71.08331507 -18.04877878 66.18550338 -17.8125 59.14257812 C-17.79445313 58.12035156 -17.77640625 57.098125 -17.7578125 56.04492188 C-17.71090557 53.53540115 -17.63916924 51.02636595 -17.5625 48.51757812 C-22.8425 48.51757812 -28.1225 48.51757812 -33.5625 48.51757812 C-33.5625 43.23757812 -33.5625 37.95757812 -33.5625 32.51757812 C-28.2825 32.51757812 -23.0025 32.51757812 -17.5625 32.51757812 C-17.60890625 30.9990625 -17.6553125 29.48054688 -17.703125 27.91601562 C-17.74065384 25.90822285 -17.7770528 23.90040873 -17.8125 21.89257812 C-17.84601563 20.89355469 -17.87953125 19.89453125 -17.9140625 18.86523438 C-17.99298846 12.90632449 -17.80801031 9.086422 -13.5625 4.51757812 C-8.93423261 0.83832522 -5.87868749 0.01418672 0 0 Z M-1.5625 16.51757812 C-1.5625 32.35757813 -1.5625 48.19757813 -1.5625 64.51757812 C19.5575 64.51757812 40.6775 64.51757812 62.4375 64.51757812 C62.4375 48.67757812 62.4375 32.83757812 62.4375 16.51757812 C41.3175 16.51757812 20.1975 16.51757812 -1.5625 16.51757812 Z M14.4375 80.51757812 C14.4375 85.79757812 14.4375 91.07757813 14.4375 96.51757812 C24.9975 96.51757812 35.5575 96.51757812 46.4375 96.51757812 C46.4375 91.23757813 46.4375 85.95757812 46.4375 80.51757812 C35.8775 80.51757812 25.3175 80.51757812 14.4375 80.51757812 Z " fill="currentColor" transform="translate(137.5625,199.482421875)"/>
<path d="M0 0 C4.17615799 1.63743934 6.9648153 4.69781792 10.05371094 7.82666016 C10.64926285 8.42192001 11.24481476 9.01717987 11.8584137 9.63047791 C13.82184643 11.59530177 15.77810373 13.56711039 17.734375 15.5390625 C19.0958564 16.90427479 20.45778061 18.26904561 21.82012939 19.63339233 C25.40183824 23.22273159 28.9774999 26.8180368 32.55194092 30.41461182 C36.20157121 34.08471319 39.85688092 37.74914829 43.51171875 41.4140625 C50.68005329 48.60383652 57.842013 55.79992516 65 63 C63.30413874 66.63303084 61.26199512 68.94549046 58.375 71.75 C57.55773437 72.54921875 56.74046875 73.3484375 55.8984375 74.171875 C55.27195312 74.77515625 54.64546875 75.3784375 54 76 C49.82384201 74.36256066 47.0351847 71.30218208 43.94628906 68.17333984 C43.35073715 67.57807999 42.75518524 66.98282013 42.1415863 66.36952209 C40.17815357 64.40469823 38.22189627 62.43288961 36.265625 60.4609375 C34.9041436 59.09572521 33.54221939 57.73095439 32.17987061 56.36660767 C28.59816176 52.77726841 25.0225001 49.1819632 21.44805908 45.58538818 C17.79842879 41.91528681 14.14311908 38.25085171 10.48828125 34.5859375 C3.31994671 27.39616348 -3.842013 20.20007484 -11 13 C-9.30413874 9.36696916 -7.26199512 7.05450954 -4.375 4.25 C-3.55773437 3.45078125 -2.74046875 2.6515625 -1.8984375 1.828125 C-0.95871094 0.92320313 -0.95871094 0.92320313 0 0 Z " fill="currentColor" transform="translate(349,42)"/>
<path d="M0 0 C3.22745524 1.41901662 5.37258107 3.12855765 7.85058594 5.62353516 C8.59105164 6.36415192 9.33151733 7.10476868 10.09442139 7.86782837 C10.88310608 8.66683563 11.67179077 9.4658429 12.484375 10.2890625 C13.29996887 11.10748627 14.11556274 11.92591003 14.95587158 12.76913452 C17.55864562 15.38309973 20.15437762 18.00393505 22.75 20.625 C24.5138634 22.39889454 26.2781809 24.17233766 28.04296875 25.9453125 C32.36726136 30.29165142 36.6857933 34.64365081 41 39 C39.30413874 42.63303084 37.26199512 44.94549046 34.375 47.75 C33.55773437 48.54921875 32.74046875 49.3484375 31.8984375 50.171875 C31.27195312 50.77515625 30.64546875 51.3784375 30 52 C26.77254476 50.58098338 24.62741893 48.87144235 22.14941406 46.37646484 C21.40894836 45.63584808 20.66848267 44.89523132 19.90557861 44.13217163 C19.11689392 43.33316437 18.32820923 42.5341571 17.515625 41.7109375 C16.70003113 40.89251373 15.88443726 40.07408997 15.04412842 39.23086548 C12.44135438 36.61690027 9.84562238 33.99606495 7.25 31.375 C5.4861366 29.60110546 3.7218191 27.82766234 1.95703125 26.0546875 C-2.36726136 21.70834858 -6.6857933 17.35634919 -11 13 C-9.30413874 9.36696916 -7.26199512 7.05450954 -4.375 4.25 C-3.55773437 3.45078125 -2.74046875 2.6515625 -1.8984375 1.828125 C-0.95871094 0.92320313 -0.95871094 0.92320313 0 0 Z " fill="currentColor" transform="translate(405,42)"/>
<path d="M0 0 C3.76603869 1.56282982 6.13639151 3.9063475 8.984375 6.7890625 C9.44483215 7.25234955 9.90528931 7.7156366 10.37969971 8.19296265 C11.84125078 9.66565898 13.29567168 11.14517403 14.75 12.625 C15.74302611 13.62806322 16.73651089 14.63067257 17.73046875 15.6328125 C20.15897941 18.08330835 22.58114675 20.5399667 25 23 C23.30413874 26.63303084 21.26199512 28.94549046 18.375 31.75 C17.14910156 32.94882813 17.14910156 32.94882813 15.8984375 34.171875 C15.27195312 34.77515625 14.64546875 35.3784375 14 36 C10.23396131 34.43717018 7.86360849 32.0936525 5.015625 29.2109375 C4.55516785 28.74765045 4.09471069 28.2843634 3.62030029 27.80703735 C2.15874922 26.33434102 0.70432832 24.85482597 -0.75 23.375 C-1.74302611 22.37193678 -2.73651089 21.36932743 -3.73046875 20.3671875 C-6.15897941 17.91669165 -8.58114675 15.4600333 -11 13 C-9.30413874 9.36696916 -7.26199512 7.05450954 -4.375 4.25 C-3.55773437 3.45078125 -2.74046875 2.6515625 -1.8984375 1.828125 C-0.95871094 0.92320313 -0.95871094 0.92320313 0 0 Z " fill="currentColor" transform="translate(317,74)"/>
</svg>
